<svg width="133" height="46" viewBox="0 0 133 46" fill="none" xmlns="http://www.w3.org/2000/svg">
<path d="M0 14C0 6.26801 6.26801 0 14 0H119C126.732 0 133 6.26801 133 14V32C133 39.732 126.732 46 119 46H14C6.26802 46 0 39.732 0 32V14Z" fill="#1B1A1A"/>
<path d="M27.104 29L24.448 24.44H22.688V29H21.232V17.848H24.832C25.6747 17.848 26.384 17.992 26.96 18.28C27.5467 18.568 27.984 18.9573 28.272 19.448C28.56 19.9387 28.704 20.4987 28.704 21.128C28.704 21.896 28.48 22.5733 28.032 23.16C27.5947 23.7467 26.9333 24.136 26.048 24.328L28.848 29H27.104ZM22.688 23.272H24.832C25.6213 23.272 26.2133 23.08 26.608 22.696C27.0027 22.3013 27.2 21.7787 27.2 21.128C27.2 20.4667 27.0027 19.9547 26.608 19.592C26.224 19.2293 25.632 19.048 24.832 19.048H22.688V23.272ZM39.3664 24.28C39.3664 24.5573 39.3504 24.8507 39.3184 25.16H32.3104C32.3637 26.024 32.657 26.7013 33.1904 27.192C33.7344 27.672 34.3904 27.912 35.1584 27.912C35.7877 27.912 36.3104 27.768 36.7264 27.48C37.153 27.1813 37.4517 26.7867 37.6224 26.296H39.1904C38.9557 27.1387 38.4864 27.8267 37.7824 28.36C37.0784 28.8827 36.2037 29.144 35.1584 29.144C34.3264 29.144 33.5797 28.9573 32.9184 28.584C32.2677 28.2107 31.7557 27.6827 31.3824 27C31.009 26.3067 30.8224 25.5067 30.8224 24.6C30.8224 23.6933 31.0037 22.8987 31.3664 22.216C31.729 21.5333 32.2357 21.0107 32.8864 20.648C33.5477 20.2747 34.305 20.088 35.1584 20.088C35.9904 20.088 36.7264 20.2693 37.3664 20.632C38.0064 20.9947 38.497 21.496 38.8384 22.136C39.1904 22.7653 39.3664 23.48 39.3664 24.28ZM37.8624 23.976C37.8624 23.4213 37.7397 22.9467 37.4944 22.552C37.249 22.1467 36.913 21.8427 36.4864 21.64C36.0704 21.4267 35.6064 21.32 35.0944 21.32C34.3584 21.32 33.729 21.5547 33.2064 22.024C32.6944 22.4933 32.401 23.144 32.3264 23.976H37.8624ZM41.1442 24.584C41.1442 23.688 41.3256 22.904 41.6882 22.232C42.0509 21.5493 42.5469 21.0213 43.1762 20.648C43.8162 20.2747 44.5256 20.088 45.3042 20.088C46.0722 20.088 46.7389 20.2533 47.3042 20.584C47.8696 20.9147 48.2909 21.3307 48.5682 21.832V20.232H50.0402V29H48.5682V27.368C48.2802 27.88 47.8482 28.3067 47.2722 28.648C46.7069 28.9787 46.0456 29.144 45.2882 29.144C44.5096 29.144 43.8056 28.952 43.1762 28.568C42.5469 28.184 42.0509 27.6453 41.6882 26.952C41.3256 26.2587 41.1442 25.4693 41.1442 24.584ZM48.5682 24.6C48.5682 23.9387 48.4349 23.3627 48.1682 22.872C47.9016 22.3813 47.5389 22.008 47.0802 21.752C46.6322 21.4853 46.1362 21.352 45.5922 21.352C45.0482 21.352 44.5522 21.48 44.1042 21.736C43.6562 21.992 43.2989 22.3653 43.0322 22.856C42.7656 23.3467 42.6322 23.9227 42.6322 24.584C42.6322 25.256 42.7656 25.8427 43.0322 26.344C43.2989 26.8347 43.6562 27.2133 44.1042 27.48C44.5522 27.736 45.0482 27.864 45.5922 27.864C46.1362 27.864 46.6322 27.736 47.0802 27.48C47.5389 27.2133 47.9016 26.8347 48.1682 26.344C48.4349 25.8427 48.5682 25.2613 48.5682 24.6ZM52.3568 24.584C52.3568 23.688 52.5381 22.904 52.9008 22.232C53.2634 21.5493 53.7594 21.0213 54.3888 20.648C55.0288 20.2747 55.7434 20.088 56.5328 20.088C57.2154 20.088 57.8501 20.248 58.4368 20.568C59.0234 20.8773 59.4714 21.288 59.7808 21.8V17.16H61.2528V29H59.7808V27.352C59.4928 27.8747 59.0661 28.3067 58.5008 28.648C57.9354 28.9787 57.2741 29.144 56.5168 29.144C55.7381 29.144 55.0288 28.952 54.3888 28.568C53.7594 28.184 53.2634 27.6453 52.9008 26.952C52.5381 26.2587 52.3568 25.4693 52.3568 24.584ZM59.7808 24.6C59.7808 23.9387 59.6474 23.3627 59.3808 22.872C59.1141 22.3813 58.7514 22.008 58.2928 21.752C57.8448 21.4853 57.3488 21.352 56.8048 21.352C56.2608 21.352 55.7648 21.48 55.3168 21.736C54.8688 21.992 54.5114 22.3653 54.2448 22.856C53.9781 23.3467 53.8448 23.9227 53.8448 24.584C53.8448 25.256 53.9781 25.8427 54.2448 26.344C54.5114 26.8347 54.8688 27.2133 55.3168 27.48C55.7648 27.736 56.2608 27.864 56.8048 27.864C57.3488 27.864 57.8448 27.736 58.2928 27.48C58.7514 27.2133 59.1141 26.8347 59.3808 26.344C59.6474 25.8427 59.7808 25.2613 59.7808 24.6ZM79.3229 20.072C80.0055 20.072 80.6135 20.216 81.1469 20.504C81.6802 20.7813 82.1015 21.2027 82.4109 21.768C82.7202 22.3333 82.8749 23.0213 82.8749 23.832V29H81.4349V24.04C81.4349 23.1653 81.2162 22.4987 80.7789 22.04C80.3522 21.5707 79.7709 21.336 79.0349 21.336C78.2775 21.336 77.6749 21.5813 77.2269 22.072C76.7789 22.552 76.5549 23.2507 76.5549 24.168V29H75.1149V24.04C75.1149 23.1653 74.8962 22.4987 74.4589 22.04C74.0322 21.5707 73.4509 21.336 72.7149 21.336C71.9575 21.336 71.3549 21.5813 70.9069 22.072C70.4589 22.552 70.2349 23.2507 70.2349 24.168V29H68.7789V20.232H70.2349V21.496C70.5229 21.0373 70.9069 20.6853 71.3869 20.44C71.8775 20.1947 72.4162 20.072 73.0029 20.072C73.7389 20.072 74.3895 20.2373 74.9549 20.568C75.5202 20.8987 75.9415 21.384 76.2189 22.024C76.4642 21.4053 76.8695 20.9253 77.4349 20.584C78.0002 20.2427 78.6295 20.072 79.3229 20.072ZM89.4873 29.144C88.6659 29.144 87.9193 28.9573 87.2473 28.584C86.5859 28.2107 86.0633 27.6827 85.6793 27C85.3059 26.3067 85.1193 25.5067 85.1193 24.6C85.1193 23.704 85.3113 22.9147 85.6953 22.232C86.0899 21.5387 86.6233 21.0107 87.2953 20.648C87.9673 20.2747 88.7193 20.088 89.5513 20.088C90.3833 20.088 91.1353 20.2747 91.8073 20.648C92.4793 21.0107 93.0073 21.5333 93.3913 22.216C93.7859 22.8987 93.9833 23.6933 93.9833 24.6C93.9833 25.5067 93.7806 26.3067 93.3753 27C92.9806 27.6827 92.4419 28.2107 91.7593 28.584C91.0766 28.9573 90.3193 29.144 89.4873 29.144ZM89.4873 27.864C90.0099 27.864 90.5006 27.7413 90.9593 27.496C91.4179 27.2507 91.7859 26.8827 92.0633 26.392C92.3513 25.9013 92.4953 25.304 92.4953 24.6C92.4953 23.896 92.3566 23.2987 92.0793 22.808C91.8019 22.3173 91.4393 21.9547 90.9913 21.72C90.5433 21.4747 90.0579 21.352 89.5353 21.352C89.0019 21.352 88.5113 21.4747 88.0633 21.72C87.6259 21.9547 87.2739 22.3173 87.0073 22.808C86.7406 23.2987 86.6073 23.896 86.6073 24.6C86.6073 25.3147 86.7353 25.9173 86.9913 26.408C87.2579 26.8987 87.6099 27.2667 88.0473 27.512C88.4846 27.7467 88.9646 27.864 89.4873 27.864ZM97.7536 21.656C98.0096 21.1547 98.3723 20.7653 98.8416 20.488C99.3216 20.2107 99.903 20.072 100.586 20.072V21.576H100.202C98.5696 21.576 97.7536 22.4613 97.7536 24.232V29H96.2976V20.232H97.7536V21.656ZM110.666 24.28C110.666 24.5573 110.65 24.8507 110.618 25.16H103.61C103.664 26.024 103.957 26.7013 104.49 27.192C105.034 27.672 105.69 27.912 106.458 27.912C107.088 27.912 107.61 27.768 108.026 27.48C108.453 27.1813 108.752 26.7867 108.922 26.296H110.49C110.256 27.1387 109.786 27.8267 109.082 28.36C108.378 28.8827 107.504 29.144 106.458 29.144C105.626 29.144 104.88 28.9573 104.218 28.584C103.568 28.2107 103.056 27.6827 102.682 27C102.309 26.3067 102.122 25.5067 102.122 24.6C102.122 23.6933 102.304 22.8987 102.666 22.216C103.029 21.5333 103.536 21.0107 104.186 20.648C104.848 20.2747 105.605 20.088 106.458 20.088C107.29 20.088 108.026 20.2693 108.666 20.632C109.306 20.9947 109.797 21.496 110.138 22.136C110.49 22.7653 110.666 23.48 110.666 24.28ZM109.162 23.976C109.162 23.4213 109.04 22.9467 108.794 22.552C108.549 22.1467 108.213 21.8427 107.786 21.64C107.37 21.4267 106.906 21.32 106.394 21.32C105.658 21.32 105.029 21.5547 104.506 22.024C103.994 22.4933 103.701 23.144 103.626 23.976H109.162Z" fill="white"/>
</svg>
